<svg width="34" height="34" viewBox="0 0 34 34" fill="none" xmlns="http://www.w3.org/2000/svg">
<path d="M28.8418 24.7249V27.0083C28.8418 27.5614 28.3936 28.0096 27.8405 28.0096H6.15887C5.60583 28.0096 5.15759 27.5614 5.15759 27.0083V24.7249H28.8418Z" fill="#FFC107"/>
<path d="M0 11.8413C0 10.0574 1.45134 8.60609 3.23523 8.60609C5.01912 8.60609 6.4702 10.0574 6.4702 11.8413C6.4702 12.6989 6.13428 13.4792 5.58746 14.0587C6.55995 15.1466 7.97212 15.8332 9.54253 15.8332C12.0846 15.8332 14.2138 14.0361 14.729 11.646C14.1342 11.059 13.7648 10.2442 13.7648 9.3446C13.7648 7.56071 15.2161 6.10938 17 6.10938C18.7839 6.10938 20.2352 7.56071 20.2352 9.3446C20.2352 10.2442 19.8656 11.059 19.271 11.646C19.7862 14.0361 21.9154 15.8332 24.4575 15.8332C26.0279 15.8332 27.44 15.1466 28.4125 14.0587C27.8657 13.4792 27.5295 12.6989 27.5295 11.8413C27.5295 10.0574 28.9809 8.60609 30.7648 8.60609C32.5487 8.60609 34 10.0574 34 11.8413C34 13.3873 32.9097 14.6828 31.4579 15.0008C31.1707 17.3707 30.6159 20.2581 29.5446 22.5662H4.45544C3.38412 20.2581 2.82927 17.3707 2.54211 15.0008C1.09026 14.6825 0 13.3873 0 11.8413Z" fill="#FFC107"/>
</svg>
