<svg width="52" height="53" viewBox="0 0 52 53" fill="none" xmlns="http://www.w3.org/2000/svg">
<path d="M51 26.5C51 40.6013 39.7892 52 26 52C12.2108 52 1 40.6013 1 26.5C1 12.3987 12.2108 1 26 1C39.7892 1 51 12.3987 51 26.5Z" stroke="#823EA0" stroke-width="2"/>
<path d="M16 34.0156V29.9844H36.0156V34.0156H16ZM18.0156 31.0156V32.9844H19.9844V31.0156H18.0156ZM16 17.9844H36.0156V22.0156H16V17.9844ZM19.9844 20.9844V19.0156H18.0156V20.9844H19.9844ZM16 28.0156V23.9844H36.0156V28.0156H16ZM18.0156 25.0156V26.9844H19.9844V25.0156H18.0156Z" fill="#833EA1"/>
</svg>
