<svg width="75" height="81" viewBox="0 0 75 81" fill="none" xmlns="http://www.w3.org/2000/svg">
<path fill-rule="evenodd" clip-rule="evenodd" d="M17.6892 20C16.8801 20 16.2234 20.672 16.2234 21.5C16.2234 22.328 16.8801 23 17.6892 23C18.4983 23 19.155 22.328 19.155 21.5C19.155 20.672 18.4983 20 17.6892 20Z" fill="#FFFFFF"/>
<path fill-rule="evenodd" clip-rule="evenodd" d="M31.3697 50H26.9724V45.5001C26.9724 44.6717 26.316 44 25.5066 44C24.6972 44 24.0409 44.6717 24.0409 45.5001V50H19.6436C18.8342 50 18.1778 50.6717 18.1778 51.4999C18.1778 52.3281 18.8342 53 19.6436 53H24.0409V57.4999C24.0409 58.3283 24.6973 59 25.5066 59C26.3159 59 26.9724 58.3283 26.9724 57.4999V53H31.3697C32.1791 53 32.8355 52.3283 32.8355 51.4999C32.8355 50.6716 32.1793 50 31.3697 50Z" fill="#FFFFFF"/>
<path fill-rule="evenodd" clip-rule="evenodd" d="M73.1978 50.9388C69.7819 44.8819 62.2292 42.8089 56.3119 46.3068L50.0352 50.0167V36.2789C50.0352 34.5806 49.4867 32.8953 48.4901 31.5332L40.7642 20.9872V16.4965C42.5626 15.8434 43.8546 14.0851 43.8546 12.0226V4.74577C43.8543 2.12894 41.7748 0 39.2187 0H11.405C8.84896 0 6.76932 2.12894 6.76932 4.74577V12.0228C6.76932 14.085 8.06133 15.8436 9.85973 16.4966V20.9874L2.13317 31.534C1.13708 32.8955 0.588501 34.5806 0.588501 36.2789V66.9165C0.588501 71.278 4.05442 74.8262 8.31445 74.8262H33.1475C36.6121 80.7719 44.083 82.7618 49.9391 79.3L68.6735 68.2263C74.5386 64.7588 76.6308 57.0288 73.1978 50.9388ZM9.85974 4.74577C9.85974 3.87344 10.5529 3.16374 11.4049 3.16374H39.2186C40.0706 3.16374 40.7638 3.87344 40.7638 4.74577V12.0228C40.7638 12.8951 40.0706 13.6047 39.2186 13.6047H11.405C10.5529 13.6047 9.85989 12.895 9.85989 12.0228V4.74577H9.85974ZM12.6411 22.4637L4.60625 33.4313C4.11192 34.107 3.80456 34.9162 3.71184 35.7523H46.9119C46.8191 34.9163 46.5117 34.1071 46.0169 33.4308L38.4461 23.0967H23.7667C22.9134 23.0967 22.2214 22.3883 22.2214 21.5147C22.2214 20.6411 22.9134 19.9326 23.7667 19.9326H37.6735V16.7687H12.9502V21.5145C12.9502 21.8568 12.8417 22.19 12.6411 22.4637ZM8.31461 71.6623C5.75856 71.6623 3.67907 69.5334 3.67907 66.9165V65.3188H31.753C31.263 67.3699 31.2662 69.5607 31.8273 71.6625H8.31461V71.6623ZM3.67892 62.1706H32.965C34.0456 60.1798 35.6242 58.5356 37.5773 57.3805L46.9447 51.8431V38.9159H3.67892V62.1706ZM48.3942 76.5599C43.9597 79.1815 38.2931 77.6311 35.7307 73.088C33.1561 68.5011 34.7164 62.726 39.1229 60.1203L47.5103 55.1625L56.7815 71.6022L48.3942 76.5599ZM59.4579 70.0203L67.1282 65.4864C71.53 62.8841 73.095 57.0866 70.5214 52.5205C67.959 47.9773 62.2944 46.4242 57.857 49.0469L50.1865 53.5803L59.4579 70.0203Z" fill="#FFFFFF"/>
</svg>
