<svg width="77" height="81" viewBox="0 0 77 81" fill="none" xmlns="http://www.w3.org/2000/svg">
<path fill-rule="evenodd" clip-rule="evenodd" d="M60.4737 44V35H71.2227V44H60.4737ZM63.1609 41H68.5354V38H63.1609V41Z" fill="#713091"/>
<path fill-rule="evenodd" clip-rule="evenodd" d="M60.4737 54V45H71.2227V54H60.4737ZM63.1609 51H68.5354V48H63.1609V51Z" fill="#713091"/>
<path fill-rule="evenodd" clip-rule="evenodd" d="M60.4737 65V56H71.2227V65H60.4737ZM63.1609 62H68.5354V59H63.1609V62Z" fill="#713091"/>
<path fill-rule="evenodd" clip-rule="evenodd" d="M60.4737 76V67H71.2227V76H60.4737ZM63.1609 73H68.5354V70H63.1609V73Z" fill="#713091"/>
<path fill-rule="evenodd" clip-rule="evenodd" d="M44.4479 5V13.1H52.6562V23.9H44.4479V32H33.5034V23.9H25.2951V13.1H33.5034V5H44.4479ZM41.7117 21.2H49.9201V15.8H41.7117V7.7H36.2395V15.8H28.0312V21.2H36.2395V29.3H41.7117V21.2Z" fill="#713091"/>
<path fill-rule="evenodd" clip-rule="evenodd" d="M57.2978 0V29.7H76.1086V81H0.865479V29.7H19.6763V0H57.2978ZM3.55273 78.3H19.6763V32.4H3.55273V78.3ZM37.1434 78.3H30.4253V54H37.1434V78.3ZM39.8307 78.3H46.5488V54H39.8307V78.3ZM54.6106 78.3H49.236V51.3H27.738V78.3H22.3635V2.7H54.6106V78.3ZM57.2978 78.3H73.4213V32.4H57.2978V78.3Z" fill="#713091"/>
<path fill-rule="evenodd" clip-rule="evenodd" d="M5.7514 44V35H16.5004V44H5.7514ZM8.43865 41H13.8132V38H8.43865V41Z" fill="#713091"/>
<path fill-rule="evenodd" clip-rule="evenodd" d="M5.7514 54V45H16.5004V54H5.7514ZM8.43865 51H13.8132V48H8.43865V51Z" fill="#713091"/>
<path fill-rule="evenodd" clip-rule="evenodd" d="M5.7514 65V56H16.5004V65H5.7514ZM8.43865 62H13.8132V59H8.43865V62Z" fill="#713091"/>
<path fill-rule="evenodd" clip-rule="evenodd" d="M5.7514 76V67H16.5004V76H5.7514ZM8.43865 73H13.8132V70H8.43865V73Z" fill="#713091"/>
</svg>
