<svg width="75" height="76" viewBox="0 0 75 76" fill="none" xmlns="http://www.w3.org/2000/svg">
<path fill-rule="evenodd" clip-rule="evenodd" d="M0.562561 38C0.562561 17.0313 17.2053 0 37.6955 0C58.1858 0 74.8285 17.0313 74.8285 38C74.8285 58.9687 58.1858 76 37.6955 76C17.2053 76 0.562561 58.9687 0.562561 38ZM3.78372 38C3.78372 57.1373 18.9948 72.7036 37.6955 72.7036C56.3962 72.7036 71.6073 57.1373 71.6073 38C71.6073 18.8626 56.3962 3.29639 37.6955 3.29639C18.9948 3.29639 3.78372 18.8626 3.78372 38Z" fill="#FFFFFF"/>
<path fill-rule="evenodd" clip-rule="evenodd" d="M45.5882 29.2308H56.6379C57.4271 29.2308 58.1287 29.9658 58.2164 30.8846V44.1154C58.2164 45.0342 57.5148 45.7692 56.6379 45.7692H45.5882V57.3462C45.5882 58.265 44.8866 59 44.0096 59H31.3814C30.5045 59 29.8029 58.265 29.8029 57.3462V45.7692H18.7532C17.8763 45.7692 17.1747 45.0342 17.1747 44.1154V30.8846C17.1747 29.9658 17.8763 29.2308 18.7532 29.2308H29.8029V17.6538C29.8029 16.735 30.5045 16 31.3814 16H44.0096C44.8866 16 45.5882 16.735 45.5882 17.6538V29.2308ZM55.0593 42.4615H55.147V32.5385H44.0974C43.2204 32.5385 42.5188 31.8034 42.5188 30.8846V19.3077H32.96V30.8846C32.96 31.8034 32.2584 32.5385 31.3814 32.5385H20.3318V42.4615H31.3814C32.2584 42.4615 32.96 43.1966 32.96 44.1154V55.6923H42.4311V44.1154C42.4311 43.1966 43.1327 42.4615 44.0097 42.4615H55.0593Z" fill="#FFFFFF"/>
</svg>
