<svg width="76" height="87" viewBox="0 0 76 87" fill="none" xmlns="http://www.w3.org/2000/svg">
<path fill-rule="evenodd" clip-rule="evenodd" d="M71.4422 60.013L75.1953 82.5452C75.38 83.6551 75.0799 84.7852 74.3721 85.6459C73.664 86.5065 72.6281 87 71.5302 87H3.72393C2.62601 87 1.59023 86.5065 0.882033 85.6461C0.174168 84.7854 -0.125913 83.6553 0.0588413 82.5453L1.29744 75.1092C1.4131 74.4158 2.05518 73.949 2.73123 74.0679C3.40745 74.1864 3.86212 74.8445 3.74663 75.5381L2.50803 82.9742C2.44573 83.348 2.54283 83.7132 2.78111 84.0029C3.01955 84.2926 3.35426 84.4522 3.72393 84.4522H71.5302C71.8998 84.4522 72.2347 84.2925 72.473 84.0029C72.7114 83.7132 72.8084 83.3479 72.7461 82.9742L68.993 60.4421C68.7483 58.9733 67.7324 57.7937 66.3413 57.3634L56.9783 54.4664V61.228C59.9231 61.829 62.1498 64.4988 62.1498 67.6926C62.1498 71.3276 59.2661 74.2847 55.7215 74.2847C52.1769 74.2847 49.2932 71.3274 49.2932 67.6926C49.2932 64.4882 51.5346 61.812 54.4937 61.2225V53.6975L50.223 52.376C49.8342 53.216 49.0636 55.0311 47.5363 58.9456C45.9998 62.8889 44.0901 67.9417 42.259 72.854C42.2459 72.8951 42.231 72.9356 42.2139 72.975C40.9909 76.2564 39.8047 79.4703 38.7903 82.2427C38.6083 82.7399 38.1449 83.0692 37.6271 83.0692C37.1092 83.0692 36.6458 82.7399 36.4638 82.2427C35.4493 79.4703 34.263 76.2564 33.0402 72.975C33.0233 72.9356 33.0082 72.8953 32.9951 72.854C31.1626 67.9388 29.252 62.8828 27.7148 58.9383C26.1895 55.0289 25.4195 53.2153 25.031 52.376L20.7602 53.6975V56.978C22.8212 57.3507 24.5712 58.7279 25.3895 60.7087C25.6552 61.3515 25.8167 62.031 25.8697 62.728L26.7749 74.6389C26.8432 75.5357 26.5405 76.429 25.9446 77.0895C25.3491 77.75 24.504 78.1287 23.6267 78.1287H22.0777C21.3916 78.1287 20.8353 77.5583 20.8353 76.8546C20.8353 76.151 21.3916 75.5807 22.0777 75.5807H23.6267C23.8137 75.5807 23.9939 75.5 24.1208 75.3593C24.2477 75.2185 24.3122 75.0282 24.2977 74.8372L23.3925 62.9261C23.3604 62.5037 23.2626 62.0922 23.1017 61.7029C22.5283 60.3144 21.1687 59.4213 19.6328 59.4213C19.6234 59.4213 19.6139 59.4213 19.6043 59.4215L19.3997 59.423C17.8194 59.4344 16.4063 60.4212 15.8831 61.8782C15.7621 62.2149 15.687 62.5674 15.6597 62.9261L14.7548 74.837C14.7402 75.0282 14.8047 75.2185 14.9316 75.3592C15.0587 75.5002 15.2387 75.5807 15.4257 75.5807H16.9747C17.6609 75.5807 18.2171 76.1508 18.2171 76.8546C18.2171 77.5585 17.6609 78.1287 16.9747 78.1287H15.4257C14.5484 78.1287 13.7035 77.7498 13.1078 77.0895C12.5121 76.4293 12.2094 75.5359 12.2776 74.6387L13.1825 62.728C13.2276 62.136 13.3517 61.5539 13.5514 60.9979C14.3035 58.9032 16.1296 57.3915 18.2758 56.9864V54.4662L8.91295 57.3632C7.52191 57.7935 6.50585 58.9731 6.26128 60.4419L4.73718 69.592C4.62152 70.2856 3.97944 70.7521 3.30339 70.6333C2.62717 70.5149 2.17249 69.8568 2.28799 69.1631L3.81208 60.013C4.21639 57.5853 5.89591 55.6351 8.19531 54.9238L18.3185 51.7917C18.7081 47.1071 21.8474 43.1381 26.1522 41.7359C25.8321 41.3716 25.5352 41.0084 25.2629 40.6533C22.8557 37.5136 21.5667 34.0547 21.2388 31.6943H20.4578C18.4267 31.6943 16.7742 29.9999 16.7742 27.9168V25.9804C16.7742 24.5901 17.5367 23.3306 18.6835 22.6769V10.0296C18.6835 4.49936 23.0709 0 28.4639 0H46.7904C52.1832 0 56.5707 4.49936 56.5707 10.0296V12.0323C56.5707 12.7362 56.0143 13.3064 55.3283 13.3064C54.6423 13.3064 54.0861 12.736 54.0861 12.0323V10.0296C54.0861 5.90427 50.8134 2.54798 46.7904 2.54798H28.4639C24.4411 2.54798 21.1682 5.90427 21.1682 10.0296V23.2477C21.6519 23.3338 22.2293 23.4827 22.8199 23.7377C22.8804 23.7603 22.939 23.7865 22.9947 23.8179C23.1281 23.8803 23.2616 23.9461 23.3947 24.0202V13.7531C23.3947 10.9166 25.6449 8.60909 28.4109 8.60909H31.8404C33.0231 8.60909 34.1785 9.03186 35.0942 9.79939L35.4305 10.0815C36.0486 10.5997 36.8289 10.8852 37.6274 10.8852C38.4259 10.8852 39.206 10.5997 39.8241 10.0815L40.1606 9.79939C41.0762 9.03169 42.2317 8.60909 43.4144 8.60909H46.8435C49.6096 8.60909 51.8597 10.9166 51.8597 13.7531V24.0202C51.9928 23.9461 52.1264 23.8803 52.2597 23.8179C52.3154 23.7865 52.3742 23.7603 52.4347 23.7377C53.0253 23.4827 53.6026 23.3338 54.0864 23.2477V18.0202C54.0864 17.3164 54.6425 16.7461 55.3286 16.7461C56.0148 16.7461 56.5711 17.3166 56.5711 18.0202V22.6768C57.7179 23.3304 58.4804 24.5901 58.4804 25.9802V27.9166C58.4804 29.9997 56.8279 31.6942 54.7968 31.6942H54.0158C53.6877 34.0546 52.3989 37.5135 49.9917 40.6531C49.7191 41.0086 49.422 41.3721 49.1015 41.7367C50.9741 42.3457 52.6728 43.4494 54.0234 44.9651C55.7119 46.86 56.7265 49.2541 56.9361 51.7917L67.059 54.9238C69.3584 55.6351 71.0377 57.5853 71.4422 60.013ZM55.3003 25.6772C55.2943 25.6771 54.7629 25.674 54.101 25.8433V29.1464H54.7964C55.4576 29.1464 55.9954 28.5948 55.9954 27.9168V25.9804C55.9954 25.8223 55.9628 25.6706 55.9074 25.5294C55.7225 25.6288 55.5144 25.6801 55.3003 25.6772ZM21.1531 29.1464H20.4577C19.7965 29.1464 19.2587 28.5948 19.2587 27.9168V25.9804C19.2587 25.8223 19.2915 25.6706 19.3467 25.5296C19.5314 25.629 19.7395 25.6803 19.9538 25.6772C19.9546 25.6774 19.9597 25.6775 19.9686 25.6777C20.0593 25.6798 20.5523 25.6909 21.1531 25.8439V29.1464ZM23.6378 27.2278V30.5749C23.6378 32.435 24.8919 36.0474 27.2159 39.0783C27.9859 40.0824 28.9754 41.161 30.1938 42.1039C30.2323 42.1303 30.269 42.159 30.3043 42.1894C32.192 43.6206 34.619 44.717 37.6271 44.717C40.6351 44.717 43.0621 43.6206 44.9496 42.1896C44.9849 42.159 45.0219 42.1303 45.0605 42.1038C46.2788 41.161 47.2684 40.0824 48.0382 39.0783C50.3623 36.0472 51.6163 32.435 51.6163 30.5749V27.229C51.4554 27.2782 51.2882 27.3036 51.1197 27.3036C50.8937 27.3036 50.6657 27.2584 50.448 27.1652C49.796 26.8862 49.3748 26.2381 49.3748 25.5143V13.7531C49.3748 12.3217 48.2391 11.1571 46.8432 11.1571H43.4141C42.803 11.1571 42.2058 11.3754 41.7329 11.772L41.3965 12.0541C40.3359 12.9433 38.9972 13.433 37.6271 13.433C36.2569 13.433 34.9182 12.9435 33.8576 12.0541L33.5212 11.772C33.0481 11.3754 32.4511 11.1571 31.84 11.1571H28.4109C27.015 11.1571 25.8793 12.3217 25.8793 13.7531V25.5141C25.8793 26.2381 25.4581 26.8861 24.8061 27.1651C24.426 27.3277 24.0142 27.3435 23.6378 27.2278ZM45.7662 51.1584L37.6271 57.3969L29.4879 51.1584C30.2951 50.1064 30.7472 48.756 30.7472 47.5509V45.4973C32.6612 46.5528 34.9451 47.2651 37.6271 47.2651C40.3091 47.2651 42.593 46.5528 44.5069 45.4973V47.5509C44.5069 48.756 44.9591 50.1064 45.7662 51.1584ZM25.3198 49.6282C26.0155 49.4347 26.7511 49.4772 27.4145 49.7363C27.9146 49.1766 28.2626 48.3503 28.2626 47.5509V43.8426C24.5627 44.4069 21.6643 47.3204 20.9384 50.9808L25.2305 49.6527C25.2595 49.6439 25.2893 49.6355 25.3198 49.6282ZM30.7863 59.9636L30.7796 59.9459C30.7166 59.7826 30.6544 59.6215 30.5928 59.4623L30.5595 59.3761L30.3804 58.9136L30.368 58.8815C30.1839 58.4069 30.0064 57.9517 29.8357 57.5155L29.8197 57.4747L29.7984 57.4203L29.7599 57.3221L29.6533 57.0504L29.6009 56.9174L29.5791 56.8618L29.4949 56.6479L29.4631 56.5675L29.4228 56.4657L29.3219 56.2108L29.1814 55.8564L29.1174 55.6955L29.0265 55.4676L28.9603 55.302L28.9422 55.257L28.9297 55.2256L28.8934 55.1349L28.8656 55.0656C28.7221 54.708 28.5857 54.3711 28.4563 54.0542L28.4531 54.0465C28.3842 53.8778 28.3168 53.713 28.252 53.556L28.1527 53.316L35.1527 58.6812L32.2278 59.9554L32.2242 59.9569L32.2122 59.9622L30.991 60.4942L30.9214 60.3138L30.7863 59.9636ZM33.0104 65.7985C33.2581 66.4546 33.5053 67.1113 33.7507 67.7643L34.2567 64.9232L32.3625 62.6651L31.8988 62.8672C32.2529 63.7967 32.623 64.7723 33.0104 65.7985ZM37.6511 78.119C37.6155 78.0432 37.573 77.9717 37.524 77.9051C36.9626 76.3834 36.2501 74.4581 35.4615 72.3396L36.6214 65.8274H38.6327L39.7926 72.3396C38.9662 74.559 38.2241 76.5658 37.6511 78.119ZM34.7628 61.6194L36.1555 63.2796H39.0986L40.4913 61.6194L37.627 60.3717L34.7628 61.6194ZM42.2437 65.7985C41.996 66.4546 41.7488 67.1113 41.5034 67.7643L40.9974 64.9231L42.8916 62.665L43.3553 62.867C43.0012 63.7965 42.6311 64.7723 42.2437 65.7985ZM46.8117 54.0204C46.8769 53.861 46.9408 53.7048 47.0023 53.556C47.0358 53.4744 47.0689 53.3946 47.1017 53.3164L40.1018 58.6815L43.0283 59.9564L43.0411 59.962L44.2635 60.4946L44.4702 59.9576L44.4737 59.9486L44.5331 59.7946L44.6615 59.4625L44.6951 59.3756L44.7641 59.1975L44.8731 58.9162L44.891 58.8699C45.0724 58.4023 45.2472 57.9536 45.4157 57.5233L45.4567 57.4188C45.505 57.2951 45.5529 57.1731 45.6003 57.0526L45.6543 56.9152L45.7909 56.5687C45.8051 56.5322 45.8192 56.4968 45.8335 56.4608C45.9243 56.2307 46.0131 56.0068 46.0996 55.7894L46.1168 55.7461L46.1334 55.7045L46.2364 55.4464L46.3191 55.2397L46.361 55.1349C46.3725 55.1062 46.3832 55.0798 46.3947 55.0513C46.4558 54.8989 46.516 54.7493 46.5746 54.6044L46.5882 54.5704C46.6561 54.4024 46.7218 54.2409 46.7862 54.0829L46.8117 54.0204ZM50.0236 49.6529L50.023 49.6527L50.0218 49.6524C50.0215 49.6523 50.0211 49.6522 50.0207 49.652C50.0204 49.6519 50.0201 49.6518 50.0198 49.6517C49.299 49.4299 48.5302 49.4666 47.8397 49.7363C47.3395 49.1766 46.9917 48.3503 46.9917 47.5509V43.8407C50.7148 44.4035 53.6044 47.2896 54.3209 50.9823L50.0236 49.6529ZM55.7215 71.7368C57.896 71.7368 59.6651 69.9227 59.6651 67.6926C59.6651 65.4626 57.896 63.6485 55.7215 63.6485C53.547 63.6485 51.7779 65.4626 51.7779 67.6926C51.7779 69.9227 53.547 71.7368 55.7215 71.7368Z" fill="#FFFFFF"/>
</svg>