<svg width="74" height="91" viewBox="0 0 74 91" fill="none" xmlns="http://www.w3.org/2000/svg">
<path fill-rule="evenodd" clip-rule="evenodd" d="M61.3579 47.0167C55.2675 47.0167 50.236 51.6577 49.4956 57.6333H32.9398V48.3438C34.4953 47.9509 35.84 46.9515 36.688 45.503L56.0123 12.3624C57.1431 10.4286 57.1625 8.10658 56.0647 6.15312C54.9668 4.19965 52.988 3.03333 50.7699 3.03333H47.3717C46.5282 1.2467 44.7423 0 42.6618 0C40.2747 0 34.4355 1.86095 34.4355 5.30833C34.4355 8.75572 40.2747 10.6167 42.6618 10.6167C45.2912 10.6167 47.454 8.63287 47.8204 6.06667H50.7684C51.8977 6.06667 52.9058 6.6612 53.4637 7.65613C54.023 8.64955 54.0126 9.83255 53.4367 10.8184L34.1124 43.9591C33.5486 44.9237 32.5509 45.5 31.4441 45.5C30.3373 45.5 29.3397 44.9237 28.7654 43.9439L8.90111 10.8169C8.32527 9.83255 8.3148 8.64955 8.87419 7.65613C9.43358 6.6612 10.4417 6.06667 11.5694 6.06667H15.0663C15.4343 8.63287 17.597 10.6167 20.2265 10.6167C22.6136 10.6167 28.4528 8.75572 28.4528 5.30833C28.4528 1.86095 22.6136 0 20.2265 0C18.146 0 16.3601 1.2467 15.5165 3.03333H11.5694C9.35131 3.03333 7.37252 4.20117 6.27468 6.15463C5.17685 8.1081 5.19629 10.4286 6.336 12.3775L26.2017 45.5046C27.0483 46.953 28.3929 47.9509 29.9484 48.3438V57.6333H16.4872C7.41589 57.6333 0.034668 65.1181 0.034668 74.3167C0.034668 83.5153 7.41589 91 16.4872 91C25.5586 91 32.9398 83.5153 32.9398 74.3167V60.6667H49.4956C50.236 66.6423 55.2675 71.2833 61.3579 71.2833C67.9554 71.2833 73.3234 65.84 73.3234 59.15C73.3234 52.46 67.9554 47.0167 61.3579 47.0167ZM42.6618 7.58333C40.8161 7.58333 37.6393 6.08335 37.4299 5.30833C37.6393 4.53332 40.8161 3.03333 42.6618 3.03333C43.8987 3.03333 44.9053 4.05405 44.9053 5.30833C44.9053 6.56262 43.8987 7.58333 42.6618 7.58333ZM25.4584 5.30833C25.249 4.53332 22.0722 3.03333 20.2265 3.03333C18.9896 3.03333 17.983 4.05405 17.983 5.30833C17.983 6.56262 18.9896 7.58333 20.2265 7.58333C22.0722 7.58333 25.249 6.08335 25.4584 5.30833ZM29.9484 74.3167C29.9484 81.8439 23.9088 87.9667 16.4872 87.9667C9.06563 87.9667 3.02604 81.8439 3.02604 74.3167C3.02604 66.7895 9.06563 60.6667 16.4872 60.6667H29.9484V74.3167ZM52.3838 59.15C52.3838 64.1686 56.4087 68.25 61.3579 68.25C66.3071 68.25 70.332 64.1686 70.332 59.15C70.332 54.1313 66.3071 50.05 61.3579 50.05C56.4087 50.05 52.3838 54.1313 52.3838 59.15Z" fill="#713091"/>
</svg>
