<svg width="100" height="88" viewBox="0 0 100 88" fill="none" xmlns="http://www.w3.org/2000/svg">
<path fill-rule="evenodd" clip-rule="evenodd" d="M67.0961 40.5773H67.1165C68.7926 40.5773 70.1511 41.9677 70.1511 43.6827V55.917V55.9379C70.1399 57.6529 68.772 59.034 67.0961 59.0225H58.7865V67.5261C58.7865 69.2411 57.4278 70.6316 55.7519 70.6316H43.7968H43.7764C42.1005 70.6201 40.7509 69.2203 40.7621 67.5052V59.0225H32.4526C30.7767 59.0225 29.418 57.6321 29.418 55.917V43.6827V43.6408C29.4292 41.9257 30.797 40.5449 32.473 40.5564H40.7621V32.0528C40.7621 30.3378 42.1208 28.9474 43.7968 28.9474H55.7723H55.7927C57.4686 28.9588 58.8181 30.3586 58.8069 32.0737V40.5773H67.0961ZM56.7707 54.8541H66.0782V44.7248H56.7503C55.6256 44.7248 54.7137 43.7916 54.7137 42.6406V33.1158H44.8359V42.6615C44.8359 43.8125 43.924 44.7457 42.7992 44.7457H33.4917V54.8541H42.7992C43.924 54.8541 44.8359 55.7873 44.8359 56.9383V66.4632H54.734V56.9383C54.734 55.7873 55.6459 54.8541 56.7707 54.8541Z" fill="#ffffff"/>
<path fill-rule="evenodd" clip-rule="evenodd" d="M85.4334 13.6518H68.5516V6.28604C68.6579 2.92489 66.0762 0.11198 62.7853 0.00342883C62.6176 -0.00206411 62.4499 -0.000494696 62.2824 0.00839863H37.2875C33.9992 -0.166591 31.1947 2.41404 31.0231 5.77232C31.0144 5.94338 31.0126 6.11471 31.0183 6.28604V13.61H14.1365C7.62139 13.61 0 17.3975 0 28.0485V73.5614C0 84.2125 7.62139 88 14.1365 88H85.4334C91.9484 88 99.5698 84.2125 99.5698 73.5614V28.0904C99.5698 17.4393 91.9689 13.6518 85.4334 13.6518ZM35.1156 6.28603C35.1156 5.67919 35.1156 4.04701 37.3077 4.04701H62.2822C64.4743 4.04701 64.4743 5.65827 64.4743 6.28603V13.6099H35.1156V6.28603ZM85.4334 83.8149C88.4655 83.8149 95.4723 82.8105 95.4723 73.5614V28.0904C95.4723 18.8413 88.445 17.8369 85.4334 17.8369H14.1364C11.1043 17.8369 4.0975 18.8413 4.0975 28.0904V73.5614C4.0975 82.8105 11.1248 83.8149 14.1364 83.8149H85.4334Z" fill="#ffffff"/>
</svg>
