<svg width="87" height="76" viewBox="0 0 87 76" fill="none" xmlns="http://www.w3.org/2000/svg">
<path fill-rule="evenodd" clip-rule="evenodd" d="M73.9745 11.7902H59.3948V5.42885C59.4866 2.52604 57.2569 0.0967097 54.4149 0.00296126C54.27 -0.00178264 54.1251 -0.000427238 53.9805 0.00725336H32.394C29.5541 -0.143874 27.132 2.08486 26.9839 4.98518C26.9763 5.13292 26.9748 5.28089 26.9797 5.42885V11.7541H12.3999C6.77328 11.7541 0.191162 15.0251 0.191162 24.2237V63.5303C0.191162 72.729 6.77328 76 12.3999 76H73.9745C79.6012 76 86.1833 72.729 86.1833 63.5303V24.2599C86.1833 15.0612 79.6189 11.7902 73.9745 11.7902ZM30.5184 5.42885C30.5184 4.90476 30.5184 3.49515 32.4117 3.49515H53.9805C55.8737 3.49515 55.8737 4.88669 55.8737 5.42885V11.7541H30.5184V5.42885ZM73.9745 72.3856C76.5932 72.3856 82.6445 71.5181 82.6445 63.5303V24.2599C82.6445 16.272 76.5755 15.4046 73.9745 15.4046H12.3999C9.78123 15.4046 3.72993 16.272 3.72993 24.2599V63.5303C3.72993 71.5181 9.79892 72.3856 12.3999 72.3856H73.9745Z" fill="#713091"/>
</svg>
