<svg width="30" height="30" viewBox="0 0 30 30" fill="none" xmlns="http://www.w3.org/2000/svg">
<path fill-rule="evenodd" clip-rule="evenodd" d="M15 30C23.2843 30 30 23.2843 30 15C30 6.71573 23.2843 0 15 0C6.71573 0 0 6.71573 0 15C0 23.2843 6.71573 30 15 30Z" fill="#713091"/>
<path fill-rule="evenodd" clip-rule="evenodd" d="M14.296 21.9539H15.4317C15.4317 21.9539 15.7747 21.9157 15.9499 21.7241C16.1111 21.5482 16.1059 21.2179 16.1059 21.2179C16.1059 21.2179 16.0837 19.6714 16.791 19.4436C17.4882 19.2193 18.3835 20.9383 19.3325 21.5993C20.05 22.0995 20.5953 21.9898 20.5953 21.9898L23.1327 21.9539C23.1327 21.9539 24.46 21.871 23.8306 20.8119C23.779 20.7252 23.4641 20.0284 21.9441 18.5966C20.3531 17.098 20.5662 17.3403 22.4827 14.7481C23.6498 13.1694 24.1164 12.2056 23.9707 11.7928C23.8317 11.3996 22.9732 11.5035 22.9732 11.5035L20.1163 11.5216C20.1163 11.5216 19.9046 11.4923 19.7475 11.5875C19.594 11.681 19.4952 11.8988 19.4952 11.8988C19.4952 11.8988 19.043 13.1204 18.44 14.1594C17.1678 16.3517 16.6592 16.4674 16.4513 16.3312C15.9677 16.014 16.0884 15.0567 16.0884 14.3766C16.0884 12.2522 16.4059 11.3664 15.4701 11.137C15.1595 11.0609 14.931 11.0106 14.1368 11.0025C13.1174 10.9918 12.2546 11.0056 11.7661 11.2486C11.4411 11.4101 11.1904 11.77 11.3431 11.7907C11.5319 11.8163 11.9595 11.9077 12.1863 12.221C12.479 12.6252 12.4687 13.533 12.4687 13.533C12.4687 13.533 12.6369 16.0339 12.0759 16.3446C11.6908 16.5577 11.1625 16.1226 10.0284 14.1337C9.44723 13.1149 9.00848 11.9888 9.00848 11.9888C9.00848 11.9888 8.92388 11.7784 8.77298 11.6658C8.58985 11.5294 8.33397 11.486 8.33397 11.486L5.61917 11.504C5.61917 11.504 5.21163 11.5156 5.06203 11.6954C4.92893 11.8553 5.05145 12.1862 5.05145 12.1862C5.05145 12.1862 7.17686 17.2325 9.58342 19.7755C11.7901 22.1071 14.296 21.9539 14.296 21.9539Z" fill="#E3E3E3"/>
</svg>
