<svg width="50" height="64" viewBox="0 0 50 64" fill="none" xmlns="http://www.w3.org/2000/svg">
<path d="M47.9462 5.30034H13.6976C13.0877 1.81678 9.76929 -0.512932 6.28559 0.0970116C3.23548 0.631045 1.00436 3.27106 0.986481 6.36761V58.6637H1.08253C1.60536 61.7409 4.26873 63.9943 7.39008 64H37.2735C37.8629 64 38.3408 63.5222 38.3408 62.9328V59.731H47.9462C48.5356 59.731 49.0135 59.2531 49.0135 58.6637V6.36761C49.0135 5.77821 48.5356 5.30034 47.9462 5.30034ZM3.12101 6.36761C3.12101 4.00988 5.03235 2.09854 7.39008 2.09854C9.74781 2.09854 11.6591 4.00988 11.6591 6.36761V52.8364C9.23499 50.645 5.54531 50.645 3.12101 52.8364V6.36761ZM36.2063 61.8655H7.39008C5.03235 61.8655 3.12101 59.9542 3.12101 57.5964C3.12101 55.2387 5.03235 53.3274 7.39008 53.3274C9.74781 53.3274 11.6591 55.2387 11.6591 57.5964V58.6637C11.6591 59.2531 12.137 59.731 12.7264 59.731H36.2063V61.8655ZM46.8789 57.5964H13.7937V7.43487H46.8789V57.5964Z" fill="white"/>
</svg>
