<svg width="30" height="30" viewBox="0 0 30 30" fill="none" xmlns="http://www.w3.org/2000/svg">
<path fill-rule="evenodd" clip-rule="evenodd" d="M8.27874 0H21.7209C26.2862 0 30.0002 3.71402 30 8.27892V21.7211C30 26.286 26.2862 30 21.7209 30H8.27874C3.71384 30 0 26.2862 0 21.7211V8.27892C0 3.71402 3.71384 0 8.27874 0ZM21.7211 27.3383C24.8185 27.3383 27.3384 24.8185 27.3384 21.7211H27.3383V8.27892C27.3383 5.18171 24.8183 2.66175 21.7209 2.66175H8.27874C5.18153 2.66175 2.66175 5.18171 2.66175 8.27892V21.7211C2.66175 24.8185 5.18153 27.3384 8.27874 27.3383H21.7211Z" fill="black"/>
<path fill-rule="evenodd" clip-rule="evenodd" d="M8 15.5002C8 11.3645 11.3644 8 15.5 8C19.6356 8 23 11.3645 23 15.5002C23 19.6357 19.6356 23 15.5 23C11.3644 23 8 19.6357 8 15.5002ZM10.5825 15.5C10.5825 18.2115 12.7886 20.4173 15.5 20.4173C18.2114 20.4173 20.4175 18.2115 20.4175 15.5C20.4175 12.7883 18.2116 10.5824 15.5 10.5824C12.7884 10.5824 10.5825 12.7883 10.5825 15.5Z" fill="black"/>
<path fill-rule="evenodd" clip-rule="evenodd" d="M23.5 4C22.8432 4 22.198 4.26591 21.7341 4.73182C21.268 5.19545 21 5.84091 21 6.5C21 7.15705 21.2682 7.80227 21.7341 8.26818C22.1977 8.73182 22.8432 9 23.5 9C24.1591 9 24.8023 8.73182 25.2682 8.26818C25.7341 7.80227 26 7.15682 26 6.5C26 5.84091 25.7341 5.19545 25.2682 4.73182C24.8045 4.26591 24.1591 4 23.5 4Z" fill="black"/>
</svg>
