<svg width="73" height="47" viewBox="0 0 73 47" fill="none" xmlns="http://www.w3.org/2000/svg">
<path d="M6.97525 42.5362H66.0248C67.2465 42.5362 68.2391 41.5429 68.2391 40.3219V2.36134C68.2391 1.14027 67.2465 0.146973 66.0248 0.146973H6.97525C5.75418 0.146973 4.76088 1.14027 4.76088 2.36134V40.3219C4.76088 41.5429 5.75482 42.5362 6.97525 42.5362ZM6.65891 2.36134C6.65891 2.18672 6.80063 2.045 6.97525 2.045H66.0248C66.1994 2.045 66.3411 2.18672 66.3411 2.36134V40.3219C66.3411 40.4965 66.1994 40.6382 66.0248 40.6382H6.97525C6.80063 40.6382 6.65891 40.4965 6.65891 40.3219V2.36134ZM73 44.2305V46.0027C73 46.4721 72.6191 46.853 72.1497 46.853H0.850316C0.380871 46.853 0 46.4721 0 46.0027V44.2305H29.9806C30.1286 44.7247 30.5816 45.0872 31.1238 45.0872H41.8768C42.4184 45.0872 42.8714 44.7253 43.02 44.2305H73Z" fill="white"/>
</svg>
