<svg width="41" height="59" viewBox="0 0 41 59" fill="none" xmlns="http://www.w3.org/2000/svg">
<path d="M36.2844 0H4.71565C2.58612 0 0.853828 1.67562 0.853828 3.73533V55.2648C0.853828 57.3244 2.58625 59.0001 4.71578 59.0001H36.2844C38.4139 59.0001 40.1463 57.3245 40.1463 55.2648V3.73533C40.1462 1.67562 38.4139 0 36.2844 0ZM2.78906 9.38837H38.2111V48.4072H2.78906V9.38837ZM4.71565 1.87178H36.2844C37.3467 1.87178 38.2111 2.70772 38.2111 3.73533V8.14051H2.78906V3.73533C2.78906 2.70772 3.65334 1.87178 4.71565 1.87178ZM36.2844 57.1282H4.71565C3.65334 57.1282 2.78893 56.2923 2.78893 55.2647V49.6549H38.2109V55.2647C38.2109 56.2923 37.3467 57.1282 36.2844 57.1282Z" fill="white"/>
<path d="M20.5001 50.4823C18.7526 50.4823 17.3309 51.8574 17.3309 53.5477C17.3309 55.2379 18.7527 56.6129 20.5001 56.6129C22.2475 56.6129 23.6692 55.2378 23.6692 53.5477C23.6692 51.8576 22.2476 50.4823 20.5001 50.4823ZM20.5001 55.365C19.4639 55.365 18.6211 54.5497 18.6211 53.5477C18.6211 52.5455 19.4639 51.7302 20.5001 51.7302C21.5362 51.7302 22.3791 52.5455 22.3791 53.5477C22.3791 54.5497 21.5362 55.365 20.5001 55.365Z" fill="white"/>
<path d="M16.1135 5.94543H24.8866C25.2429 5.94543 25.5317 5.66603 25.5317 5.3215C25.5317 4.97697 25.2429 4.69757 24.8866 4.69757H16.1135C15.7572 4.69757 15.4685 4.97697 15.4685 5.3215C15.4685 5.66603 15.7572 5.94543 16.1135 5.94543Z" fill="white"/>
<path d="M13.7916 5.94543C13.9607 5.94543 14.1271 5.87929 14.2471 5.76324C14.3671 5.64594 14.4367 5.48622 14.4367 5.3215C14.4367 5.15678 14.3671 4.99706 14.2471 4.87976C14.127 4.76371 13.9605 4.69757 13.7916 4.69757C13.6213 4.69757 13.4561 4.76371 13.3349 4.87976C13.2149 4.99581 13.1466 5.15678 13.1466 5.3215C13.1466 5.48622 13.2149 5.64594 13.3349 5.76324C13.4549 5.87929 13.6213 5.94543 13.7916 5.94543Z" fill="white"/>
</svg>
