<svg width="92" height="92" viewBox="0 0 92 92" fill="none" xmlns="http://www.w3.org/2000/svg">
<path d="M88.7798 88.9333L84.1798 56.7333H82.493L79.4264 47.5333H78.2V42.9333H75.1333V47.5333H74.0597L70.993 56.7333H69.307L64.707 88.9333H59.8V48.3C59.8 38.1799 63.1736 28.3667 69.6132 20.5465L71.7597 17.7868L69.307 15.9465L67.1597 18.707C66.393 19.6264 65.7798 20.5465 65.1667 21.4667H61.1798C61.793 20.7 62.407 19.9333 63.0201 19.1667L64.093 17.7868L61.6403 15.9465L60.5667 17.1736C59.3403 18.707 58.2667 20.0868 57.193 21.4667H47.5333V15.3333H44.4667V21.4667H34.6535C33.5798 20.0868 32.507 18.707 31.2799 17.1736L30.207 15.9465L27.7535 17.7868L28.8264 19.1667C29.4403 19.9333 30.0535 20.7 30.6667 21.4667H26.6798C26.0667 20.5465 25.3 19.6264 24.6868 18.707L22.5403 15.9465L20.0868 17.7868L22.2333 20.5465C28.5201 28.3667 31.893 38.1799 32.0465 48.3V88.9333H27.293L22.693 56.7333H21.007L17.9403 47.5333H16.8667V42.9333H13.8V47.5333H12.7264L9.6597 56.7333H7.82015L3.22015 88.9333H0V92H92V88.9333H88.7798ZM76.207 50.6H77.1264L79.1201 56.7333H74.2132L76.207 50.6ZM71.9132 59.8H75.1333V72.0667H78.2V59.8H81.4202L85.5597 88.9333H67.7736L71.9132 59.8ZM44.4667 49.0667V88.9333H41.4V49.0667H44.4667ZM47.5333 49.0667H50.6V88.9333H47.5333V49.0667ZM53.6667 49.0667H56.7333V88.9333H53.6667V49.0667ZM63.1736 24.5333C59.3403 31.1264 57.193 38.4868 56.8868 46H53.8201C53.9736 34.6535 55.9667 29.2868 59.0333 24.5333H63.1736ZM55.3535 24.5333C52.593 29.2868 50.907 35.1132 50.7535 46H47.6868V24.5333H55.3535ZM44.4667 24.5333V46H41.4C41.2465 35.1132 39.407 29.2868 36.8 24.5333H44.4667ZM28.8264 24.5333H33.1201C36.1868 29.2868 38.1798 34.6535 38.3333 46H35.2667C34.807 38.4868 32.6597 31.1264 28.8264 24.5333ZM35.2667 49.0667H38.3333V88.9333H35.2667V49.0667ZM14.8736 50.6H15.793L17.7868 56.7333H12.8799L14.8736 50.6ZM10.5799 59.8H13.8V72.0667H16.8667V59.8H20.0868L24.2264 88.9333H6.4403L10.5799 59.8Z" fill="#713091"/>
<path d="M45.9999 7.66667C50.293 7.66667 53.6666 11.0403 53.6666 15.3333H56.7333C56.7333 9.96667 52.7464 5.52015 47.5333 4.75348V0H44.4666V4.75348C39.2534 5.52015 35.2666 9.96667 35.2666 15.3333H38.3333C38.3333 11.0403 41.7069 7.66667 45.9999 7.66667Z" fill="#713091"/>
</svg>
