<svg width="23" height="23" viewBox="0 0 23 23" fill="none" xmlns="http://www.w3.org/2000/svg">
<path fill-rule="evenodd" clip-rule="evenodd" d="M11.5 23C8.42829 23 5.54031 21.8038 3.36826 19.6317C1.19622 17.4597 0 14.5717 0 11.5C0 8.42829 1.19622 5.54031 3.36826 3.36826C5.54031 1.19622 8.42829 0 11.5 0C14.5717 0 17.4597 1.19622 19.6317 3.36826C21.8038 5.54031 23 8.42829 23 11.5C23 14.5717 21.8038 17.4597 19.6317 19.6317C17.4597 21.8038 14.5717 23 11.5 23ZM11.5 1.79688C6.14973 1.79688 1.79688 6.14973 1.79688 11.5C1.79688 16.8503 6.14973 21.2031 11.5 21.2031C16.8503 21.2031 21.2031 16.8503 21.2031 11.5C21.2031 6.14973 16.8503 1.79688 11.5 1.79688ZM14.9623 14.9623L16.2329 16.2329C14.9281 17.5378 13.2139 18.1902 11.5 18.1902C9.78595 18.1902 8.0719 17.5378 6.76706 16.2329C4.15738 13.6233 4.15738 9.37691 6.76706 6.76706C9.37674 4.15738 13.6231 4.15738 16.2329 6.76706L14.9623 8.03768C13.0531 6.1285 9.94686 6.1285 8.03768 8.03768C6.1285 9.94686 6.1285 13.0531 8.03768 14.9623C9.94686 16.8715 13.0531 16.8715 14.9623 14.9623Z" fill="black"/>
</svg>
