<svg width="12" height="17" viewBox="0 0 12 17" fill="none" xmlns="http://www.w3.org/2000/svg">
<path d="M1.67969 1.89844C2.82552 0.752604 4.20573 0.179688 5.82031 0.179688C7.4349 0.179688 8.8151 0.752604 9.96094 1.89844C11.1068 3.01823 11.6797 4.38542 11.6797 6C11.6797 6.80729 11.4714 7.74479 11.0547 8.8125C10.6641 9.85417 10.1823 10.8307 9.60938 11.7422C9.03646 12.6276 8.46354 13.474 7.89062 14.2812C7.31771 15.0625 6.83594 15.6875 6.44531 16.1562L5.82031 16.8203C5.66406 16.6641 5.45573 16.4297 5.19531 16.1172C4.9349 15.8047 4.46615 15.2057 3.78906 14.3203C3.13802 13.4089 2.55208 12.5365 2.03125 11.7031C1.51042 10.8438 1.04167 9.88021 0.625 8.8125C0.208333 7.74479 0 6.80729 0 6C0 4.38542 0.559896 3.01823 1.67969 1.89844ZM4.33594 7.48438C4.7526 7.875 5.2474 8.07031 5.82031 8.07031C6.39323 8.07031 6.88802 7.875 7.30469 7.48438C7.72135 7.06771 7.92969 6.57292 7.92969 6C7.92969 5.42708 7.72135 4.94531 7.30469 4.55469C6.88802 4.13802 6.39323 3.92969 5.82031 3.92969C5.2474 3.92969 4.7526 4.13802 4.33594 4.55469C3.94531 4.94531 3.75 5.42708 3.75 6C3.75 6.57292 3.94531 7.06771 4.33594 7.48438Z" fill="#713091"/>
</svg>
