<svg xmlns="http://www.w3.org/2000/svg" viewBox="0 0 267.6 82.6"><defs><style>.cls-1{fill:#702c91;}.cls-2,.cls-3{fill:#fff;}.cls-2{stroke:#702c91;stroke-linecap:round;stroke-linejoin:round;stroke-width:1.72px;}.cls-4{fill:#e30016;}</style></defs><title>Layer1000</title><g id="Layer_2" data-name="Layer 2"><g id="svg17"><g id="Layer1000"><path id="path2" class="cls-1" d="M16.19,0H65.9A16.25,16.25,0,0,1,82.1,16.19V66.4A16.25,16.25,0,0,1,65.9,82.6H16.19A16.25,16.25,0,0,1,0,66.4V16.19A16.24,16.24,0,0,1,16.19,0Z"/><path id="path4" class="cls-2" d="M59.24,24.43a24.62,24.62,0,1,1-34.82,0A24.61,24.61,0,0,1,59.24,24.43ZM28.11,55.57h0a19.41,19.41,0,1,0,0-27.45A19.41,19.41,0,0,0,28.11,55.57Z"/><path id="path6" class="cls-3" d="M18.16,63.54l1.93,1.94,7-7-1.94-1.93Z"/><path id="path8" class="cls-3" d="M2.32,75.2a4.17,4.17,0,1,0,5.9,5.9L19.33,70a4.18,4.18,0,1,0-5.91-5.9Z"/><path id="path10" class="cls-4" d="M41.53,28.66h0a1.93,1.93,0,0,1,1.92,1.93v22a1.93,1.93,0,0,1-1.92,1.93h0a1.94,1.94,0,0,1-1.93-1.93v-22A1.94,1.94,0,0,1,41.53,28.66Z"/><path id="path12" class="cls-4" d="M28.6,41.58h0a1.93,1.93,0,0,1,1.93-1.92h22a1.92,1.92,0,0,1,1.92,1.92h0a1.93,1.93,0,0,1-1.92,1.93h-22A1.94,1.94,0,0,1,28.6,41.58Z"/><path id="path14" class="cls-1" d="M101.25,69.52V29.57h2.89V69.52Zm3.1-50.4a2.32,2.32,0,0,1-1.66.65,2.22,2.22,0,0,1-1.63-.65,2.29,2.29,0,0,1,1.63-3.9,2.34,2.34,0,0,1,1.66.67,2.26,2.26,0,0,1,0,3.23Zm32.83,30.41H112.86V46.82h24.32Zm10.57-30.24h2.87V29.57h8.3v2.52h-8.3V60.35c0,2.39.45,4.09,1.36,5.13A5.64,5.64,0,0,0,156.4,67a26.3,26.3,0,0,0,3-.08v2.56c-.29,0-1.43.08-3.41.08-2.92,0-5-.71-6.33-2.14s-1.95-3.76-1.95-7V32.09H141.9V29.57h5.85ZM179.8,31.65A13.12,13.12,0,0,0,169.61,36q-4,4.36-4.31,11.54H194c0-4.73-1.36-8.56-4-11.51a13,13,0,0,0-10.22-4.41Zm13.69,26.7h2.93A13.37,13.37,0,0,1,191,66.77,17.77,17.77,0,0,1,180.14,70q-8.2,0-13-5.43t-4.81-15q0-9.29,4.81-14.91a17.16,17.16,0,0,1,25.09-.35q4.68,5.28,4.67,14V50H165.26v.15q0,8.07,4,12.69a13.77,13.77,0,0,0,10.88,4.59,14.81,14.81,0,0,0,8.87-2.52,10.67,10.67,0,0,0,4.44-6.57ZM207,50.09l22.6-20.52h3.77l-18.8,17.21,19,22.74H230L212.44,48.57,207,53.45V69.52H204.1V13.66H207V50.09Zm43.37,17.39a14.72,14.72,0,0,0,10.16-3.73,11.65,11.65,0,0,0,4.19-9v-6l-13.32,1q-5.74.42-8.74,2.71a7.55,7.55,0,0,0-3,6.31,7.7,7.7,0,0,0,3,6.27A11.84,11.84,0,0,0,250.39,67.48ZM250,70a14.28,14.28,0,0,1-9.56-3.14,10.17,10.17,0,0,1-3.68-8.14,9.64,9.64,0,0,1,3.62-8q3.6-2.91,10.66-3.42l13.68-1V42.78c0-3.49-1-6.22-3-8.17s-4.81-2.92-8.4-2.92A13.21,13.21,0,0,0,245,34.17a10.45,10.45,0,0,0-3.93,7H238.3a12.27,12.27,0,0,1,4.63-8.83,16.23,16.23,0,0,1,10.43-3.29c4.37,0,7.84,1.2,10.4,3.63s3.84,5.72,3.84,9.9V69.52h-2.78V60.91h-.08a12.77,12.77,0,0,1-5.57,6.61A17,17,0,0,1,250,70Z"/></g></g></g></svg>