<svg width="17" height="21" viewBox="0 0 17 21" fill="none" xmlns="http://www.w3.org/2000/svg">
<path d="M9 5.94141C8.71875 6.22266 8.36719 6.36328 7.94531 6.36328C7.54688 6.36328 7.19531 6.22266 6.89062 5.94141C6.58594 5.63672 6.43359 5.28516 6.43359 4.88672C6.43359 4.46484 6.58594 4.11328 6.89062 3.83203C7.19531 3.52734 7.54688 3.375 7.94531 3.375C8.36719 3.375 8.71875 3.52734 9 3.83203C9.30469 4.11328 9.45703 4.46484 9.45703 4.88672C9.45703 5.28516 9.30469 5.63672 9 5.94141ZM5.23828 16.7695L0 15.75L0.316406 14.2383L3.97266 14.9766L5.16797 8.89453L3.83203 9.42188V11.9883H2.32031V8.47266L6.22266 6.82031C6.29297 6.82031 6.38672 6.80859 6.50391 6.78516C6.64453 6.76172 6.75 6.75 6.82031 6.75C7.33594 6.75 7.75781 6.99609 8.08594 7.48828L8.85938 8.68359C9.16406 9.22266 9.59766 9.65625 10.1602 9.98438C10.7461 10.3125 11.3789 10.4766 12.0586 10.4766V11.9883C10.3945 11.9883 9.02344 11.3672 7.94531 10.125L7.48828 12.375L9.07031 13.8516V19.4766H7.55859V14.9766L6.01172 13.5L5.23828 16.7695Z" fill="black"/>
<path fill-rule="evenodd" clip-rule="evenodd" d="M15 2H5V0H17V21H5V19H15V2Z" fill="black"/>
</svg>
